<svg width="27" height="17" viewBox="0 0 27 17" fill="none" xmlns="http://www.w3.org/2000/svg">
<g clip-path="url(#clip0_104_1698)">
<path d="M1.02539 16.9531H3.37891C3.99414 16.9531 4.4043 16.5234 4.4043 15.8887V11.5039C4.4043 10.8691 3.99414 10.4492 3.37891 10.4492H1.02539C0.410156 10.4492 0 10.8691 0 11.5039V15.8887C0 16.5234 0.410156 16.9531 1.02539 16.9531ZM1.02539 16.9531H3.37891C3.99414 16.9531 4.4043 16.5234 4.4043 15.8887V11.5039C4.4043 10.8691 3.99414 10.4492 3.37891 10.4492H1.02539C0.410156 10.4492 0 10.8691 0 11.5039V15.8887C0 16.5234 0.410156 16.9531 1.02539 16.9531ZM1.02539 16.9531H3.37891C3.99414 16.9531 4.4043 16.5234 4.4043 15.8887V11.5039C4.4043 10.8691 3.99414 10.4492 3.37891 10.4492H1.02539C0.410156 10.4492 0 10.8691 0 11.5039V15.8887C0 16.5234 0.410156 16.9531 1.02539 16.9531ZM1.02539 16.9531H3.37891C3.99414 16.9531 4.4043 16.5234 4.4043 15.8887V11.5039C4.4043 10.8691 3.99414 10.4492 3.37891 10.4492H1.02539C0.410156 10.4492 0 10.8691 0 11.5039V15.8887C0 16.5234 0.410156 16.9531 1.02539 16.9531Z" fill="white" fill-opacity="0.85"/>
<path d="M10.6934 16.9531H8.33984C7.72461 16.9531 7.31445 16.5234 7.31445 15.8887V8.45703C7.31445 7.82227 7.72461 7.39258 8.33984 7.39258H10.6934C11.3086 7.39258 11.7188 7.82227 11.7188 8.45703V15.8887C11.7188 16.5234 11.3086 16.9531 10.6934 16.9531Z" fill="#777777" fill-opacity="0.85"/>
<path d="M18.0078 16.9531H15.6543C15.0391 16.9531 14.6289 16.5234 14.6289 15.8887V4.92188C14.6289 4.28711 15.0391 3.85742 15.6543 3.85742H18.0078C18.6133 3.85742 19.0332 4.28711 19.0332 4.92188V15.8887C19.0332 16.5234 18.6133 16.9531 18.0078 16.9531Z" fill="#777777" fill-opacity="0.85"/>
<path d="M25.332 16.9531H22.959C22.3535 16.9531 21.9336 16.5234 21.9336 15.8887V1.06445C21.9336 0.429688 22.3535 0 22.959 0H25.332C25.9375 0 26.3477 0.429688 26.3477 1.06445V15.8887C26.3477 16.5234 25.9375 16.9531 25.332 16.9531Z" fill="#777777" fill-opacity="0.85"/>
</g>
<defs>
<clipPath id="clip0_104_1698">
<rect width="26.3477" height="16.9629" fill="white"/>
</clipPath>
</defs>
</svg>
