<svg width="21" height="13" viewBox="0 0 21 13" fill="none" xmlns="http://www.w3.org/2000/svg">
<g clip-path="url(#clip0_104_1698)">
<path d="M0.785837 12.9925H2.58952C3.06102 12.9925 3.37536 12.6632 3.37536 12.1768V8.81636C3.37536 8.32986 3.06102 8.00806 2.58952 8.00806H0.785837C0.314335 8.00806 0 8.32986 0 8.81636V12.1768C0 12.6632 0.314335 12.9925 0.785837 12.9925ZM0.785837 12.9925H2.58952C3.06102 12.9925 3.37536 12.6632 3.37536 12.1768V8.81636C3.37536 8.32986 3.06102 8.00806 2.58952 8.00806H0.785837C0.314335 8.00806 0 8.32986 0 8.81636V12.1768C0 12.6632 0.314335 12.9925 0.785837 12.9925ZM0.785837 12.9925H2.58952C3.06102 12.9925 3.37536 12.6632 3.37536 12.1768V8.81636C3.37536 8.32986 3.06102 8.00806 2.58952 8.00806H0.785837C0.314335 8.00806 0 8.32986 0 8.81636V12.1768C0 12.6632 0.314335 12.9925 0.785837 12.9925ZM0.785837 12.9925H2.58952C3.06102 12.9925 3.37536 12.6632 3.37536 12.1768V8.81636C3.37536 8.32986 3.06102 8.00806 2.58952 8.00806H0.785837C0.314335 8.00806 0 8.32986 0 8.81636V12.1768C0 12.6632 0.314335 12.9925 0.785837 12.9925Z" fill="white" fill-opacity="0.85"/>
<path d="M8.19502 12.9925H6.39131C5.91981 12.9925 5.60547 12.6632 5.60547 12.1768V6.4813C5.60547 5.99483 5.91981 5.66553 6.39131 5.66553H8.19502C8.6665 5.66553 8.98087 5.99483 8.98087 6.4813V12.1768C8.98087 12.6632 8.6665 12.9925 8.19502 12.9925Z" fill="#777777" fill-opacity="0.85"/>
<path d="M13.8009 12.9925H11.9973C11.5258 12.9925 11.2114 12.6632 11.2114 12.1768V3.77202C11.2114 3.28554 11.5258 2.95624 11.9973 2.95624H13.8009C14.265 2.95624 14.5868 3.28554 14.5868 3.77202V12.1768C14.5868 12.6632 14.265 12.9925 13.8009 12.9925Z" fill="#777777" fill-opacity="0.85"/>
<path d="M19.414 12.9925H17.5954C17.1314 12.9925 16.8096 12.6632 16.8096 12.1768V0.815772C16.8096 0.329304 17.1314 0 17.5954 0H19.414C19.8781 0 20.1924 0.329304 20.1924 0.815772V12.1768C20.1924 12.6632 19.8781 12.9925 19.414 12.9925Z" fill="#777777" fill-opacity="0.85"/>
</g>
<defs>
<clipPath id="clip0_104_1698">
<rect width="20.1923" height="13" fill="white"/>
</clipPath>
</defs>
</svg>
