<svg width="27" height="17" viewBox="0 0 27 17" fill="none" xmlns="http://www.w3.org/2000/svg">
<g clip-path="url(#clip0_104_1686)">
<path d="M1.02539 16.9531H3.37891C3.99414 16.9531 4.4043 16.5234 4.4043 15.8887V11.5039C4.4043 10.8691 3.99414 10.4492 3.37891 10.4492H1.02539C0.410156 10.4492 0 10.8691 0 11.5039V15.8887C0 16.5234 0.410156 16.9531 1.02539 16.9531ZM8.33984 16.9531H10.6934C11.3086 16.9531 11.7188 16.5234 11.7188 15.8887V8.45703C11.7188 7.82227 11.3086 7.39258 10.6934 7.39258H8.33984C7.72461 7.39258 7.31445 7.82227 7.31445 8.45703V15.8887C7.31445 16.5234 7.72461 16.9531 8.33984 16.9531ZM15.6543 16.9531H18.0078C18.6133 16.9531 19.0332 16.5234 19.0332 15.8887V4.92188C19.0332 4.28711 18.6133 3.85742 18.0078 3.85742H15.6543C15.0391 3.85742 14.6289 4.28711 14.6289 4.92188V15.8887C14.6289 16.5234 15.0391 16.9531 15.6543 16.9531ZM22.959 16.9531H25.332C25.9375 16.9531 26.3477 16.5234 26.3477 15.8887V1.06445C26.3477 0.429688 25.9375 0 25.332 0H22.959C22.3535 0 21.9336 0.429688 21.9336 1.06445V15.8887C21.9336 16.5234 22.3535 16.9531 22.959 16.9531Z" fill="white" fill-opacity="0.85"/>
</g>
<defs>
<clipPath id="clip0_104_1686">
<rect width="26.3477" height="16.9629" fill="white"/>
</clipPath>
</defs>
</svg>
