<svg width="21" height="13" viewBox="0 0 21 13" fill="none" xmlns="http://www.w3.org/2000/svg">
<g clip-path="url(#clip0_104_1686)">
<path d="M0.785837 12.9925H2.58952C3.06102 12.9925 3.37536 12.6632 3.37536 12.1768V8.81634C3.37536 8.32984 3.06102 8.00804 2.58952 8.00804H0.785837C0.314335 8.00804 0 8.32984 0 8.81634V12.1768C0 12.6632 0.314335 12.9925 0.785837 12.9925ZM6.39147 12.9925H8.19519C8.66667 12.9925 8.98104 12.6632 8.98104 12.1768V6.48129C8.98104 5.99482 8.66667 5.66551 8.19519 5.66551H6.39147C5.91997 5.66551 5.60564 5.99482 5.60564 6.48129V12.1768C5.60564 12.6632 5.91997 12.9925 6.39147 12.9925ZM11.9971 12.9925H13.8008C14.2648 12.9925 14.5866 12.6632 14.5866 12.1768V3.77202C14.5866 3.28555 14.2648 2.95624 13.8008 2.95624H11.9971C11.5256 2.95624 11.2113 3.28555 11.2113 3.77202V12.1768C11.2113 12.6632 11.5256 12.9925 11.9971 12.9925ZM17.5953 12.9925H19.4139C19.8779 12.9925 20.1923 12.6632 20.1923 12.1768V0.815772C20.1923 0.329304 19.8779 0 19.4139 0H17.5953C17.1312 0 16.8094 0.329304 16.8094 0.815772V12.1768C16.8094 12.6632 17.1312 12.9925 17.5953 12.9925Z" fill="white" fill-opacity="0.85"/>
</g>
<defs>
<clipPath id="clip0_104_1686">
<rect width="20.1923" height="13" fill="white"/>
</clipPath>
</defs>
</svg>
