<?xml version="1.0" encoding="utf-8"?>
<!-- Generator: Adobe Illustrator 26.4.1, SVG Export Plug-In . SVG Version: 6.00 Build 0)  -->
<svg version="1.1" id="Layer_1" xmlns="http://www.w3.org/2000/svg" xmlns:xlink="http://www.w3.org/1999/xlink" x="0px" y="0px"
	 viewBox="0 0 724.6 527" style="enable-background:new 0 0 724.6 527;" xml:space="preserve">
<style type="text/css">
	.st0{fill:#CCCCCC;}
	.st1{fill:#E6E6E6;}
	.st2{fill:#FAFAF3;}
	.st3{fill:#FFFFFF;}
	.st4{fill:#1C850B;}
	.st5{opacity:0.1;enable-background:new    ;}
	.st6{fill:#F2F2F2;}
	.st7{fill:#8FD684;}
	.st8{fill:#1C910B;}
	.st9{fill:#114807;}
</style>
<path class="st0" d="M671.1,11.8H136.6c0-1.9-1.6-3.3-3.3-3.3h-21.1c-1.9,0-3.3,1.6-3.3,3.3h-5.2c0-1.9-1.6-3.3-3.4-3.3H79.1
	c-1.9,0-3.3,1.6-3.3,3.3H56.9c-22.6,0-41,18.4-41.1,41.1v0.4c-0.1,0-0.1,0-0.2,0h-0.4c-2,0-3.4,1.6-3.4,3.4l0,0v40.1
	c0,2,1.6,3.4,3.4,3.4l0,0h0.4c0.1,0,0.1,0,0.2,0v376.5c0,22.6,18.4,41,41.1,41.1h614.2c22.6,0,41-18.4,41.1-41.1V52.9
	C712.2,30.2,693.8,11.8,671.1,11.8z M699.8,476.8c0,15.8-12.9,28.7-28.7,28.7H56.9c-15.8,0-28.7-12.9-28.7-28.7V52.9
	c0-15.8,12.9-28.7,28.7-28.7h614.2c15.8,0,28.7,12.9,28.7,28.7V476.8L699.8,476.8z"/>
<path class="st1" d="M671.1,512.3H56.9c-19.6,0-35.6-15.9-35.6-35.6V52.9c0.1-19.6,15.9-35.6,35.6-35.6h614.2
	c19.6,0,35.6,15.9,35.6,35.6v424C706.7,496.4,690.7,512.3,671.1,512.3z"/>
<path class="st2" d="M671.3,483.7H56.7c-4.3,0-7.9-3.4-7.9-7.9V53.8c0-4.3,3.4-7.9,7.9-7.9h614.6c4.3,0,7.9,3.4,7.9,7.9v422.1
	C679.1,480.1,675.6,483.7,671.3,483.7z"/>
<circle class="st3" cx="35.3" cy="264.1" r="2.9"/>
<path class="st0" d="M280,101.8H149.4c-21.3,0-38.6,17.3-38.7,38.7v11.8c-1-0.3-2,0.3-2.3,1.3c0,0.2-0.1,0.3-0.1,0.5v9
	c0,1,0.8,1.9,1.8,1.9c0.2,0,0.3,0,0.5-0.1v13.8c-1-0.3-2,0.3-2.3,1.3c0,0.2-0.1,0.3-0.1,0.5v22.7c0,1,0.8,1.9,1.8,1.9
	c0.2,0,0.3,0,0.5-0.1v8.3c-1-0.3-2,0.3-2.3,1.3c0,0.2-0.1,0.3-0.1,0.5v22.7c0,1,0.8,1.9,1.8,1.9c0.2,0,0.3,0,0.5-0.1V479
	c0,21.3,17.3,38.6,38.7,38.7h130.6c21.3,0,38.6-17.3,38.7-38.7V140.4C318.6,119.1,301.3,101.8,280,101.8z M310.4,478.8
	c0,16.8-13.7,30.5-30.5,30.5H149.4c-16.8,0-30.5-13.7-30.5-30.5V140.4c0-16.8,13.7-30.5,30.5-30.5H280c16.8,0,30.5,13.7,30.5,30.5
	L310.4,478.8L310.4,478.8z"/>
<path class="st1" d="M280,513.8H149.4c-19.4,0-35-15.6-35-35V140.4c0-19.4,15.6-35,35-35H280c19.4,0,35,15.6,35,35v338.4
	C314.8,498.1,299.2,513.8,280,513.8z"/>
<path class="st2" d="M283.2,508.4h-137c-13.1,0-23.6-10.5-23.6-23.6V134.4c0-13.1,10.5-23.6,23.6-23.6H164c2.2,0,3.8,1.8,3.8,3.8
	c0,6.4,5.1,11.5,11.5,11.5H248c6.4,0,11.5-5.1,11.5-11.5c0-2.2,1.8-3.8,3.8-3.8h19.7c13.1,0,23.6,10.5,23.6,23.6v350.3
	C306.8,497.7,296.2,508.4,283.2,508.4z"/>
<path class="st3" d="M220.5,118.8h-16.3c-1,0-1.9-0.8-1.9-1.9c0-1,0.8-1.9,1.9-1.9l0,0h16.3c1,0,1.9,0.8,1.9,1.9
	C222.4,118,221.6,118.8,220.5,118.8z"/>
<circle class="st3" cx="231.9" cy="117.4" r="0.9"/>
<path class="st0" d="M232.8,204.1l0.2,4.2c21.5-1,46.6,0.9,73.2,5.3v-4.2C279.6,205,254.4,203.1,232.8,204.1z"/>
<path class="st4" d="M206,286.8c-0.2,1.7-0.3,3.2-0.4,4.8c-0.2,3.1-0.3,6.5-0.3,9.7c0,62.5,41.1,117.5,100.9,135.4V166
	C251.5,182.3,211.9,230,206,286.8z"/>
<circle class="st0" cx="135.6" cy="202.2" r="2.8"/>
<circle class="st0" cx="129.6" cy="311" r="5.5"/>
<circle class="st0" cx="233.1" cy="167.1" r="3.9"/>
<circle class="st0" cx="142.5" cy="388.7" r="3.1"/>
<circle class="st0" cx="206.7" cy="432.9" r="3.4"/>
<polygon class="st0" points="306.8,86.6 299.9,86.6 299.9,79.7 296.3,79.7 296.3,86.6 289.5,86.6 289.5,90.2 296.3,90.2 296.3,97.1 
	299.9,97.1 299.9,90.2 306.8,90.2 "/>
<circle class="st5" cx="257.4" cy="277.6" r="11.9"/>
<circle class="st5" cx="263.4" cy="361.2" r="11.9"/>
<path class="st0" d="M211,286.9c-14.6-9.7-25.4-19.5-32.2-28.6c-6.8-9.1-9.2-17.6-7.3-24.8c2.1-7.3,8.4-13.1,19.1-17.4
	c10.6-4.3,25-7,42.4-7.8l-0.2-4.2c-37.5,1.7-60.7,11.7-65.3,28.2s9.9,37.1,41.2,58.1c25.4,17.1,59.4,32.9,97.5,45.4v-4.5
	C269,319,235.8,303.5,211,286.9z"/>
<path class="st5" d="M211,290.3c-1.8-1.2-3.3-2.4-5-3.4c-0.2,1.7-0.3,3.2-0.4,4.8c1,0.7,2.1,1.4,3,2.2
	c25.4,17.1,59.4,32.9,97.5,45.4v-4.4C269,322.3,235.8,306.9,211,290.3z"/>
<path class="st0" d="M368.5,222.1c-16.6-4.6-33.1-8.4-49.1-11.4v4.2c15.6,2.9,31.7,6.6,47.9,11.1c51.7,14.5,98.5,35.6,128.4,57.9
	l2.6-3.3C467.9,258.2,420.6,236.8,368.5,222.1z"/>
<path class="st4" d="M492.5,301.4c0-78-63.4-141.3-141.4-141.2c-10.7,0-21.4,1.3-31.9,3.6v275.1c64,14.9,130.1-16.4,158.9-75.6
	c0.8-1.5,1.5-3,2.2-4.5C488.4,340.7,492.5,321.3,492.5,301.4L492.5,301.4z"/>
<circle class="st6" cx="355.1" cy="133.2" r="1.7"/>
<circle class="st0" cx="464.5" cy="142.9" r="3.6"/>
<circle class="st0" cx="594.5" cy="294.9" r="6"/>
<circle class="st0" cx="547.9" cy="199.9" r="2.6"/>
<circle class="st0" cx="539" cy="282.8" r="2.6"/>
<polygon class="st0" points="469.2,454 464.9,454 464.9,449.6 462.6,449.6 462.6,454 458.3,454 458.3,456.1 462.6,456.1 
	462.6,460.4 464.9,460.4 464.9,456.1 469.2,456.1 "/>
<polygon class="st0" points="567.6,432.1 564.3,432.1 564.3,428.9 562.7,428.9 562.7,432.1 559.4,432.1 559.4,433.8 562.7,433.8 
	562.7,437 564.3,437 564.3,433.8 567.6,433.8 "/>
<circle class="st5" cx="353.4" cy="190.8" r="11.9"/>
<circle class="st5" cx="353.4" cy="296" r="11.9"/>
<circle class="st5" cx="417.2" cy="232.4" r="11.9"/>
<circle class="st5" cx="456.5" cy="312.7" r="11.9"/>
<path class="st0" d="M524.8,307.3c-5.6-8.5-14.5-17.5-26.7-26.5l-2.6,3.3c23.5,17.6,34.5,34.4,30.8,47.3
	c-2.1,7.3-8.4,13.1-19.1,17.4c-10.6,4.3-25,7-42.4,7.8c-3.6,0.2-7.6,0.3-11.5,0.3c-34.3,0-75.6-6.4-117.9-18.2
	c-5.5-1.6-11-3.1-16.4-4.8v4.4c5,1.6,10.1,3,15.2,4.5c42.6,12,84.3,18.4,119,18.4c3.9,0,7.9-0.1,11.6-0.3
	c37.5-1.7,60.7-11.7,65.3-28.2C532.6,325,530.7,316.4,524.8,307.3z"/>
<path class="st5" d="M465,360.1c-3.6,0.2-7.6,0.3-11.5,0.3c-34.2,0-75.6-6.4-117.9-18.2c-5.5-1.6-11-3.1-16.4-4.8v4.4
	c5,1.6,10.1,3,15.2,4.5c42.6,12,84.3,18.4,119,18.4c3.9,0,7.9-0.1,11.6-0.3c4.5-0.2,8.9-0.5,13.1-1c0.8-1.5,1.5-3,2.2-4.5
	C475.5,359.4,470.4,359.8,465,360.1z"/>
<circle class="st3" cx="417.1" cy="182.8" r="15.4"/>
<path class="st7" d="M417.1,160.2c-12.2,0-22.1,9.8-22.1,22.1c0,12.2,22.1,52.3,22.1,52.3s22.1-40.1,22.1-52.3
	C439.2,170,429.4,160.2,417.1,160.2z M417.1,193.1c-5.7,0-10.2-4.5-10.2-10.2c0-5.7,4.5-10.2,10.2-10.2c5.7,0,10.2,4.5,10.2,10.2
	C427.3,188.5,422.8,193.1,417.1,193.1L417.1,193.1L417.1,193.1z"/>
<circle class="st3" cx="353.2" cy="238.9" r="15.4"/>
<path class="st7" d="M353.2,216.2c-12.2,0-22.1,9.8-22.1,22.1c0,12.2,22.1,52.3,22.1,52.3s22.1-40.1,22.1-52.3
	C375.3,226.1,365.5,216.2,353.2,216.2z M353.2,249.1c-5.7,0-10.2-4.5-10.2-10.2s4.5-10.2,10.2-10.2c5.7,0,10.2,4.5,10.2,10.2
	S358.9,249.1,353.2,249.1L353.2,249.1L353.2,249.1z"/>
<circle class="st8" cx="353.2" cy="139.4" r="15.4"/>
<path class="st9" d="M353.2,116.6c-12.2,0-22.1,9.8-22.1,22.1c0,12.2,22.1,52.3,22.1,52.3s22.1-40.1,22.1-52.3
	S365.5,116.6,353.2,116.6z M353.2,149.5c-5.7,0-10.2-4.5-10.2-10.2s4.5-10.2,10.2-10.2c5.7,0,10.2,4.5,10.2,10.2
	S358.9,149.5,353.2,149.5L353.2,149.5L353.2,149.5z"/>
<circle class="st8" cx="456.7" cy="259.3" r="15.4"/>
<path class="st9" d="M456.7,236.5c-12.2,0-22.1,9.8-22.1,22.1c0,12.2,22.1,52.3,22.1,52.3s22.1-40.1,22.1-52.3
	C478.8,246.4,469,236.5,456.7,236.5z M456.7,269.4c-5.7,0-10.2-4.5-10.2-10.2c0-5.7,4.5-10.2,10.2-10.2c5.7,0,10.2,4.5,10.2,10.2
	C466.9,264.9,462.4,269.4,456.7,269.4L456.7,269.4L456.7,269.4z"/>
<ellipse class="st8" cx="257.5" cy="224.4" rx="15.4" ry="15.4"/>
<path class="st9" d="M257.6,201.7c-12.2,0-22.1,9.8-22.1,22.1c0,12.2,22.1,52.3,22.1,52.3s22.1-40.1,22.1-52.3
	C279.7,211.6,269.8,201.7,257.6,201.7z M257.6,234.6c-5.7,0-10.2-4.5-10.2-10.2c0-5.7,4.5-10.2,10.2-10.2s10.2,4.5,10.2,10.2l0,0
	C267.8,230,263.3,234.6,257.6,234.6L257.6,234.6z"/>
<circle class="st3" cx="263.4" cy="308.6" r="15.4"/>
<path class="st7" d="M263.4,285.8c-12.2,0-22.1,9.8-22.1,22.1c0,12.2,22.1,52.3,22.1,52.3s22.1-40.1,22.1-52.3
	S275.6,285.8,263.4,285.8z M263.4,318.7c-5.7,0-10.2-4.5-10.2-10.2c0-5.7,4.5-10.2,10.2-10.2c5.7,0,10.2,4.5,10.2,10.2l0,0
	C273.6,314.1,269.1,318.7,263.4,318.7L263.4,318.7z"/>
</svg>
